<svg id="Lag_1" data-name="Lag 1" xmlns="http://www.w3.org/2000/svg" xmlns:xlink="http://www.w3.org/1999/xlink" width="390mm" height="400mm" viewBox="0 0 1105.51 1133.86"><defs><style>.cls-1,.cls-10,.cls-14,.cls-6,.cls-7{fill:none;}.cls-2{fill:#e8c695;}.cls-3{fill:#352f2f;}.cls-4{fill:#779bd1;}.cls-4,.cls-5{isolation:isolate;}.cls-5{fill:#eb7a69;}.cls-14,.cls-6,.cls-7{stroke:#000;}.cls-10,.cls-14,.cls-6,.cls-7{stroke-miterlimit:10;}.cls-6{stroke-width:0.75px;}.cls-8{fill:#b04f26;}.cls-9{fill:#9f4728;}.cls-10{stroke:#683c11;}.cls-11{fill:#fff;}.cls-12{clip-path:url(#clip-path);}.cls-13{fill:#020202;}.cls-14{stroke-width:0.25px;}</style><clipPath id="clip-path"><path class="cls-1" d="M565.24,312.49a17,17,0,0,1,12.82-5.31c8.78.43,13.21,7.94,13.5,8.45a18.57,18.57,0,0,1-26.32-3.14Z"/></clipPath></defs><rect class="cls-2" x="605.46" y="825.5" width="24.32" height="54.15"/><polygon class="cls-3" points="605.01 874.39 605.01 909.76 616.2 909.76 618.6 896.5 623.8 909.76 679.62 909.76 630.99 879.92 605.01 874.39"/><rect class="cls-2" x="399.08" y="805.72" width="25.7" height="54.15" transform="translate(705.82 1714.19) rotate(-172.12)"/><polygon class="cls-3" points="422.14 856.23 417.3 891.26 405.58 889.64 404.88 876.16 397.62 888.54 339.18 880.45 394.19 857.94 422.14 856.23"/><path class="cls-2" d="M302.33,576.42h0c-8.42-4.63-14.69-8-22.47-10.12-3.74-1-2.93-.38-7.76-1.55-14.2-3.43-20-8.47-21.82-7.25s2.28,6.93,3.15,8.16c4.26,6,8,6.75,7.19,9.51-1.14,3.9-10,7.22-15.15,9.15-13.65,5.12-23,4.31-26.93,9-.32.39-1.33,1.6-.89,2.45.78,1.47,5.41.81,11.33-.12,15.93-2.51,19.07-3.56,19.63-2.67,1.08,1.68-7.79,9.33-18.17,14.49-5.39,2.69-11.81,5-12.16,7.6a1.83,1.83,0,0,0,.8,1.71c5.23,3.71,36-14.36,37.95-12.39.83.86-4.19,5.07-6.65,7.13-7.36,6.17-13.6,8.81-13.49,11.73a1.51,1.51,0,0,0,.88,1.45c2.88,1.15,11.76-5.33,12.72-6,13.46-8.77,17-10.07,17.64-9.62.92.6-2.54,4.77-4,6.54-3.43,4.14-6.32,6.16-5.68,7.84a2.35,2.35,0,0,0,2.09,1.35c4.11.2,9.23-8.67,22.32-21.18,7.4-7.07,9.37-7.68,12.89-12.41A34.89,34.89,0,0,0,302.33,576.42Z"/><path class="cls-4" d="M564.74,341.23l-4.44,20.93s-17.36-5.5-50.53,10.66S265.61,546.24,265.61,546.24l44.47,70.25L516.83,437l7.93,19.8,101.36,9.89q3.09-15.6,6.17-31.2a75.35,75.35,0,0,0,17.13,34.19c21.13,23.7,51.12,27.53,57.33,25.25,28.47-10.44,89.16-51,88.51-55.55s-56.52-62.53-56.52-62.53l-41.28,36.26c-32.53-48-58.61-56.67-77-55-8.48.79-31.49,5.31-36.08-2.78-2.48-4.35,1.72-10-1.95-13.58C579,338.48,571.43,339.51,564.74,341.23Z"/><path class="cls-5" d="M527.44,456.72q-12,8.2-24.22,17.92c-47.74,38.21-79.92,82.14-101.67,120.67Q359,706.72,316.43,818.12l192.43,2.25L542,626.6q3.33,99.2,6.65,198.38l136.9,3.35L673.16,567.54a149.15,149.15,0,0,0-.42-15.73c-.54-6.86-2-25.75-9.94-43.33-10.55-23.44-29.23-37.25-39.8-43.8Z"/><ellipse class="cls-2" cx="577.97" cy="322.05" rx="20.31" ry="28.26" transform="translate(-49.54 112.3) rotate(-10.64)"/><path class="cls-2" d="M773.44,413.56l0,0c-6.7-7.44-11.65-13-15.53-20.28-1.87-3.5-1-2.82-3.33-7.36-6.7-13.37-13.26-18.15-12.37-20.17s7.77,1,9.25,1.61c7.26,3.09,8.83,6.63,11.55,5.34,3.86-1.83,5.41-11.16,6.31-16.59,2.4-14.38-.5-23.48,3.55-28.16.33-.39,1.38-1.61,2.37-1.32,1.71.49,2,5.17,2.35,11.17.84,16.16.43,19.44,1.48,19.83,2,.76,8.1-9.38,11.26-20.55,1.64-5.8,2.68-12.54,5.32-13.36a2.1,2.1,0,0,1,2,.48c5,4.47-7.22,38.12-4.72,39.64,1.08.66,4.4-5.05,6-7.85,4.87-8.37,6.29-15,9.38-15.43a1.71,1.71,0,0,1,1.71.6c1.84,2.63-3,12.56-3.57,13.64-6.27,14.85-6.87,18.54-6.25,19.13.84.79,4.46-3.38,6-5.15,3.59-4.13,5.09-7.35,7-7a2.53,2.53,0,0,1,1.88,1.81c1.11,4-7.1,10.67-17.37,25.85-5.81,8.58-6,10.63-10.22,15A36.58,36.58,0,0,1,773.44,413.56Z"/><path class="cls-5" d="M789.05,383.14l-63.27-31.35c-6.92-9.19-7.67-20-2.7-25.32,6.4-6.87,24.44-7.15,36.84,5.95.25-18.18,13.81-29.34,22.89-28.31,8.06.92,16.64,11.9,16.29,26.47Z"/><path class="cls-6" d="M571.24,412.92c-2.49,6.69-6.43,9.15-8,10-8.56,4.53-22.31.1-31.85-12.61"/><path class="cls-6" d="M585.9,413.59a16.31,16.31,0,0,0,8.37,8.49c9,3.87,23.45.08,33.47-10.76"/><polyline class="cls-7" points="537.17 541.66 544.25 572.63 565.04 543.87"/><path class="cls-7" d="M544.37,571.86c0,6.95-.25,17.18-1,29.52-2,32.2-6.26,55.18-10.27,77.43-3.86,21.41-9.46,53.33-16.44,96"/><path class="cls-8" d="M573.65,267.27c-5.46-4-11.85-3.28-17.39-2.68-1.7.18-9.87,1.17-19.61,7.16-4.51,2.77-15.93,9.79-20.56,21.93-5.73,15,5.32,20.85.87,36.54-4,14.12-13.17,13.42-19.53,27-8.34,17.83,19.43,40.78,8.13,63.1-3,6-9.46,12.41-17.4,14.05C476,436.86,466.32,427,464,429.49c-2.53,2.63,6.15,16.39,20.08,24.84,6.26,3.79,12.95,7.85,20.81,6.71,18.1-2.62,26.19-30.43,26.54-31.68,3-10.67.58-16.28,6.22-32.31,1.88-5.35,2.95-8.41,5.45-12.31,6.67-10.41,13.42-11.15,19.88-18.14,9.75-10.57,11.37-27,8.33-37.7-4.36-15.46-16.61-24.8-12.85-29.58,1.52-1.93,3.7-.64,9-2.92,1.48-.64,12.14-5.59,12.86-15.28A16.11,16.11,0,0,0,573.65,267.27Z"/><path class="cls-9" d="M541.69,272c1.82-13.32,44.76-18.51,54.69-2,3.14,5.22,2.12,11.2,1.71,13.56C594.6,303.91,567,313.62,544,310.41c-14.64-2-27-9.23-26.78-11.38.35-3.56,34.93,6.13,37.59-3.27C556.64,289.13,540.53,280.52,541.69,272Z"/><path class="cls-10" d="M540.06,322.05c2.86,3,14.6,16.15,10.51,33.87-4,17.43-20.6,27.34-24.71,29.67"/><path class="cls-11" d="M565.24,312.49a17,17,0,0,1,12.83-5.31c8.77.43,13.2,7.95,13.49,8.45a18.57,18.57,0,0,1-26.32-3.14Z"/><g class="cls-12"><circle class="cls-13" cx="578.46" cy="312.91" r="8.27"/></g><path class="cls-14" d="M594.43,319.71c-.15,2.8-.14,5.07-.09,6.64.07,2.42.23,4-.57,4.64a2.13,2.13,0,0,1-2.18,0"/><path class="cls-14" d="M591.59,339.34a16.35,16.35,0,0,1-7.75-.57,15.3,15.3,0,0,1-3.7-1.84,15.14,15.14,0,0,1-2.77-2.56"/></svg>
