<svg id="Lag_1" data-name="Lag 1" xmlns="http://www.w3.org/2000/svg" xmlns:xlink="http://www.w3.org/1999/xlink" width="390mm" height="400mm" viewBox="0 0 1105.51 1133.86"><defs><style>.cls-1,.cls-12,.cls-13,.cls-7{fill:none;}.cls-2{fill:#e8c695;}.cls-3{fill:#352f2f;}.cls-4{fill:#3d3b38;}.cls-5{fill:#ee7063;}.cls-6{fill:#cdcccc;}.cls-7{stroke:#fff;}.cls-12,.cls-13,.cls-7{stroke-miterlimit:10;}.cls-8{fill:#fff;}.cls-9{clip-path:url(#clip-path);}.cls-10{fill:#020202;}.cls-11{clip-path:url(#clip-path-2);}.cls-12{stroke:#1d1d1b;}.cls-13{stroke:#000;stroke-width:0.75px;}</style><clipPath id="clip-path"><path class="cls-1" d="M597.11,94.22c-.91-.82-7.35-6.43-16.41-5.07-10.74,1.61-15.28,11.53-15.58,12.2a23.25,23.25,0,0,0,17.61,3.23A23.54,23.54,0,0,0,597.11,94.22Z"/></clipPath><clipPath id="clip-path-2"><path class="cls-1" d="M560.35,101.75c-1.53-3.93-4.78-10.24-11.23-13.16a16,16,0,0,0-1.72-.67,60.58,60.58,0,0,0-1.95,7.16,59.72,59.72,0,0,0-1.1,8.17,23.46,23.46,0,0,0,7.82.71A23.21,23.21,0,0,0,560.35,101.75Z"/></clipPath></defs><rect class="cls-2" x="718.67" y="967.63" width="65.19" height="86.02" transform="translate(1502.52 2021.27) rotate(180)"/><path class="cls-2" d="M177.5,937.27,226,957.85,242.71,952l53.85-112.79-58.83-28.08Z"/><path class="cls-3" d="M619.84,163.88l8.49,69.06L726,251.38,896.18,563l-95,12.29L854.7,754.33,840,764.86,896.18,994H609.32l-32.58-181.3Q504.4,865.4,432,918.12L170.58,818.58,367.79,698.13q1.53-10.08,3-20.16l-76-242.27L468.05,246.11l106.71-13.46q6.25-30.79,12.52-61.59Z"/><path class="cls-2" d="M543.22,120.59c0,41.69,19,75.49,42.55,75.49,20.57,0,37.72-25.88,41.69-60.28a132.07,132.07,0,0,0,.87-15.21c0-41.69-19.06-75.49-42.56-75.49S543.22,78.9,543.22,120.59Z"/><polygon class="cls-4" points="593.63 334.83 743.4 237.91 635.05 230.58 592.87 323.16 562.05 231.41 465.44 229.72 593.63 334.83"/><path class="cls-5" d="M394.46,221.53c10.34-10.58,79.71,21,119.81,77.24,49.83,69.91,35,150.6,33.41,158.59-3.38,16.93-14,70.21-60.48,107.08-24.31,19.3-47.3,25.28-78.34,33.36-45.52,11.84-55.27,2.15-57.6-.59-2.58-3-5.28-8.43-3.46-11.7,3.31-6,19.93-1.91,27.65-.59,30,5.16,57.71-8,78.92-18.14,41.56-19.8,72.13-66.16,81.22-113.52,11.66-60.83-13.36-116.83-41.48-147.46-20.48-22.32-48.8-53.18-77.18-59.69-4.2-1-21.49-4.4-24.2-14.63C391.83,228.08,392.45,223.59,394.46,221.53Z"/><path class="cls-6" d="M400.8,229.72,357,594.29,335.13,583.1l12.67-4-6.91-12.29s5.76-5.85,8.06-3.8-8.06-13.17-8.06-13.17l16.7-1.17L338,530.5l19.58-5.85-9.79-11.12,10.95-5.85-12.1-15.8s17.28,0,15.55-.58-17.85-17.56-17.85-17.56l16.7-2.34s-8.68-9.95-9.81-11.7,11.54-2.34,11.54-2.34l-11.54-9.95L368,444.48l-16.72-21.06L368,424l-9.21-9.36L376,412,368,401.18,357,386l13.82.59-10.94-15.8,14.4-.59-9.79-14.62a22.43,22.43,0,0,1,7.49-1.76c3.45,0-12.1-15.8-12.1-15.8l19-8.19-18.44-6.44,19.59-13.46L371.42,307l11.52-11.12-15-5.27,16.13-9.36-19-10,23.62-4.68-12.1-5.27,15-3.51L374.3,249l15.55-2.92-16.7-6.44Z"/><path class="cls-2" d="M575.62,469.5a191.51,191.51,0,0,0-28.42-8c-7.09-1.41-39-7.74-42.43.5-2.25,5.39,9.49,12.67,6.7,19.53-2.33,5.68-11.63,3.66-14.26,9.65-2.75,6.25,5.91,11.78,4.53,19.53-1.95,11-21.48,12.2-22.24,17.78s17.7,15.9,95.26,36Q575.18,517,575.62,469.5Z"/><polygon class="cls-3" points="718.67 1032.58 718.67 1088.76 753.66 1088.76 761.16 1067.69 777.42 1088.76 951.96 1088.76 799.89 1041.36 718.67 1032.58"/><polygon class="cls-3" points="245.46 946.81 214.92 993.96 189.74 977.65 195.79 956.47 172.64 966.58 47.06 885.23 182.25 916.32 245.46 946.81"/><path class="cls-7" d="M686.2,395.88s21.87,56.64,19.68,57.2-130.26-10.56-130.26-10.56V587.45l203.5-8.53L896.18,563"/><path class="cls-7" d="M841.58,765.29h-334V610.92l-14.88,141.6L383.59,708.76"/><path class="cls-8" d="M597.11,94.21c-.91-.82-7.35-6.42-16.41-5.06-10.74,1.62-15.28,11.54-15.57,12.21a23.17,23.17,0,0,0,17.6,3.22A23.5,23.5,0,0,0,597.11,94.21Z"/><g class="cls-9"><ellipse class="cls-10" cx="580.91" cy="96.36" rx="10.22" ry="10.39"/></g><path class="cls-8" d="M560.36,101.74c-1.54-3.93-4.79-10.23-11.25-13.16a15,15,0,0,0-1.71-.66q-1.53,7.67-3,15.33a23.27,23.27,0,0,0,5.85.78A23.6,23.6,0,0,0,560.36,101.74Z"/><g class="cls-11"><ellipse class="cls-10" cx="545.51" cy="94.8" rx="10.22" ry="10.39"/></g><line class="cls-12" x1="588.91" y1="73.82" x2="568.27" y2="89.17"/><line class="cls-12" x1="560.16" y1="88.94" x2="550.97" y2="77.18"/><path class="cls-13" d="M562.87,111.37c.25,4.46.23,8.06.15,10.56-.11,3.85-.36,6.33.9,7.4,1,.83,2.45.42,3.45,0"/><path class="cls-13" d="M567.34,152.62a25.63,25.63,0,0,0,12.26-.92,22.46,22.46,0,0,0,5.85-2.93,23.8,23.8,0,0,0,4.39-4.07"/></svg>
