<svg id="Lag_1" data-name="Lag 1" xmlns="http://www.w3.org/2000/svg" xmlns:xlink="http://www.w3.org/1999/xlink" width="170mm" height="250mm" viewBox="0 0 481.89 708.66"><defs><style>.cls-1,.cls-12,.cls-13,.cls-7,.cls-8{fill:none;}.cls-2{fill:#e8c695;}.cls-3{fill:#b04f26;}.cls-4{fill:#9f4728;}.cls-5{fill:#e5a801;opacity:0.99;}.cls-6{fill:#ee7063;}.cls-7{stroke:#fff;}.cls-12,.cls-13,.cls-7,.cls-8{stroke-miterlimit:10;}.cls-8{stroke:#683c11;}.cls-9{fill:#fff;}.cls-10{clip-path:url(#clip-path);}.cls-11{fill:#020202;}.cls-12{stroke:#000;stroke-width:0.25px;}.cls-13{stroke:#432918;}</style><clipPath id="clip-path"><path class="cls-1" d="M317.18,102.06A17,17,0,0,1,327,92.29c8.29-2.93,15.23,2.35,15.69,2.71a18.57,18.57,0,0,1-25.55,7.06Z"/></clipPath></defs><path class="cls-2" d="M340.43,158.86l11.28,36.82,23.89,30.09,5-36.37q3.51-32.28,7-64.56l-10-20.51L388,81.11c3.86,8.57,8.26,19.17,12.56,31.54h0c0,17.61,10.7,151.14,8,205.79a38,38,0,0,1-7,19.68c-2,2.7-3.71,5-6.25,5.47-2.08.37-7.54,0-21.23-24.27-15.58-27.58-26.54-59-27.45-61.27l0-.05q5.81,14.29,11.54,28.83,16.64,42.21,31.45,83.38l-150-16.47q6.15-27.64,13.28-56.27,4.71-18.87,9.61-37.13c-17-2.86-70.27-14-96.54-56.87-18.4-30-21.9-57.64-21.9-57.64-1.47-11.54-1.48-25.27-7.3-45.29a171.2,171.2,0,0,0-8.63-23.27l33.18,1.31a285.6,285.6,0,0,0,9.29,33.62c6.85,20,10.68,31.13,19.91,41.17,9.93,10.82,20.93,14.67,36.5,19.9a177.48,177.48,0,0,0,63.92,8.92,62,62,0,0,0,32.53-27.64,65.32,65.32,0,0,0,7.73-39.6c9.65-.88,18.7,3.51,22.56,11C359.08,136.32,354.18,152.2,340.43,158.86Z"/><path class="cls-2" d="M318.7,63a77.23,77.23,0,0,0-9.62,34.5c-.35,10.58-.79,24.07,8.29,31.19,7.49,5.88,17.52,4.33,21.9,3.65,16.28-2.51,26.74-15.45,26.5-15.81l-.27-.3h0L366,66Z"/><path class="cls-3" d="M326,44.7c7.57-5.88,16.44-4.86,24.12-4,2.36.27,13.69,1.74,27.21,10.62,6.26,4.11,22.1,14.52,28.53,32.51,7.94,22.21-7.39,30.92-1.21,54.2,5.55,20.93,18.27,19.89,27.09,40,11.58,26.45-26.95,60.47-11.28,93.57,4.23,8.92,13.13,18.41,24.15,20.83,16.82,3.7,30.31-10.88,33.58-7.23,3.5,3.9-8.53,24.3-27.87,36.83-8.67,5.62-17.95,11.64-28.86,10-25.13-3.88-36.35-45.12-36.84-47-4.11-15.83-.8-24.14-8.62-47.92-2.61-7.93-4.09-12.46-7.56-18.24-9.26-15.45-18.63-16.54-27.59-26.92-13.52-15.66-15.78-40-11.56-55.9,6.06-22.92,23.06-36.76,17.83-43.85C345,89.38,342,91.29,334.6,87.9c-2.05-.94-16.84-8.28-17.83-22.65A24.49,24.49,0,0,1,326,44.7Z"/><path class="cls-4" d="M332.06,46.73c-9.44-10.79-56.73,5.36-57.62,24.58-.29,6.09,4.17,10.84,5.93,12.71,15.18,16.17,49.2,11.38,71.18-2.54,14-8.84,22.63-21.09,21.19-22.88-2.38-3-32.59,22.21-40.68,15.25C326.36,69,338.11,53.64,332.06,46.73Z"/><path class="cls-5" d="M387.29,363.56c7.2,9.68,34.23,48.35,27,97.88a123.39,123.39,0,0,1-20.12,50.87c-33.69,51.18-79.47,40.91-85.44,39.41-34.56-8.67-32.16-35.58-81.05-55.17-27.36-11-47.83-10.45-59.15-9.2a119.54,119.54,0,0,0-37.24,10.51C89.33,518,59.76,568.22,45.08,597.29,42.89,583.72,31.26,503.36,86,437.44c29-34.94,64-50.58,82.75-57.31,8.7-3.51,17.9-7.66,27.46-12.58a331.75,331.75,0,0,0,42.6-26.21Z"/><path class="cls-6" d="M55.89,595.65c35.35,10.58,32.9,102.78,24.88,104.51C73.54,701.73,58,630.5,43.94,632.48c-13.11,1.84-8.86,65.11-16.92,65.69s-36-61.32-6-90.58C21.9,606.77,39,590.58,55.89,595.65Z"/><path class="cls-2" d="M387.19,117.06a21.51,21.51,0,0,1-1.25-20.35l-4.65-1.26a61.17,61.17,0,0,0,1.81,15.88c.71,2.89,4.67,2,4.91-.67q.81-9.06,1-18.17c.06-3.22-4.94-3.22-5,0q-.17,9.11-1,18.17l4.91-.66a55.73,55.73,0,0,1-1.63-14.55c0-2.38-3.57-3.55-4.66-1.26a26.6,26.6,0,0,0,1.24,25.39c1.7,2.73,6,.22,4.32-2.52Z"/><path class="cls-2" d="M369.73,75.23c1.2.27,2.39.58,3.56,1,.59.18,1.19.35,1.75.58a3.76,3.76,0,0,0,.37.16c.27.09.33.31.13,0a11.26,11.26,0,0,1,1,3c.38,1.3.74,2.6,1.08,3.91a123.73,123.73,0,0,1,2.93,15,2.57,2.57,0,0,0,2.5,2.5,2.52,2.52,0,0,0,2.5-2.5,133.54,133.54,0,0,0-3.48-17.73c-.37-1.38-.77-2.76-1.19-4.13A7.71,7.71,0,0,0,379,73.38a9.52,9.52,0,0,0-3.52-1.74,45.61,45.61,0,0,0-4.44-1.23c-3.13-.7-4.47,4.12-1.33,4.82Z"/><path class="cls-2" d="M380,82.15c5.84,4.48,10.56,10.42,12.57,17.57a65.88,65.88,0,0,1,1.9,12c.41,4.54.79,9.08,1.19,13.62a2.56,2.56,0,0,0,2.5,2.5,2.53,2.53,0,0,0,2.5-2.5c-.43-4.84-.82-9.68-1.27-14.52a65.82,65.82,0,0,0-2.25-13.3c-2.5-8.11-8-14.6-14.62-19.69a2.52,2.52,0,0,0-3.42.89,2.56,2.56,0,0,0,.9,3.42Z"/><path class="cls-2" d="M380.09,83.84c1.19,2,2.28,4.08,3.27,6.19a59.54,59.54,0,0,1,2.49,6.12,2.5,2.5,0,0,0,4.82-1.33,76.35,76.35,0,0,0-6.27-13.51,2.5,2.5,0,0,0-4.31,2.53Z"/><path class="cls-2" d="M377.76,75.83l4.93,13.41A2.56,2.56,0,0,0,385.77,91a2.52,2.52,0,0,0,1.74-3.08L382.58,74.5a2.5,2.5,0,0,0-4.82,1.33Z"/><path class="cls-2" d="M376,74.67l.13,0,.6.27,1,.44a20.65,20.65,0,0,1,2,1.09,5.66,5.66,0,0,1,2.26,2.53,30.36,30.36,0,0,1,1.24,5.25l1.23,5.91A2.52,2.52,0,0,0,387.4,92a2.56,2.56,0,0,0,1.75-3.07l-1.33-6.42a24.17,24.17,0,0,0-1.74-6.15c-1.75-3.43-5.43-5.06-8.79-6.47a2.51,2.51,0,0,0-3.07,1.75A2.55,2.55,0,0,0,376,74.67Z"/><path class="cls-2" d="M382.42,70.14a24.78,24.78,0,0,1,5.89,21,2.57,2.57,0,0,0,1.74,3.08,2.54,2.54,0,0,0,3.08-1.75A30.1,30.1,0,0,0,386,66.6c-2.16-2.39-5.69,1.16-3.54,3.54Z"/><path class="cls-2" d="M384.87,78.22c.21,1,.41,2,.57,3,.08.47.15.94.22,1.41-.08-.51,0,.18,0,.28l.09.83a58.26,58.26,0,0,1,.34,6,2.5,2.5,0,0,0,5,0,64,64,0,0,0-1.43-12.94,2.52,2.52,0,0,0-3.08-1.74,2.55,2.55,0,0,0-1.74,3.07Z"/><path class="cls-2" d="M141.57,100l0,0c7.23-6.33,12.57-11.05,17.19-17.65,2.22-3.18,1.36-2.63,4.11-6.77,8.08-12.17,14.79-15.89,14.26-18s-7.29-.23-8.73.16c-7.12,2-9.08,5.21-11.39,3.51-3.29-2.4-3.38-11.87-3.43-17.36-.14-14.58,3.82-23.13.77-28.38-.25-.43-1-1.79-2-1.67-1.64.23-2.61,4.8-3.76,10.69-3.09,15.83-3.18,19.13-4.2,19.36-2,.44-6.11-10.52-7.41-22-.68-6-.67-12.81-3-14a1.85,1.85,0,0,0-1.88.17c-5.27,3.65,1.18,38.78-1.33,39.9-1.09.48-3.32-5.67-4.42-8.68-3.28-9-3.63-15.8-6.42-16.7a1.49,1.49,0,0,0-1.65.34c-2.07,2.31,1,12.87,1.32,14,3.64,15.64,3.67,19.37,3,19.86-.88.66-3.61-4-4.78-6-2.71-4.63-3.63-8-5.42-8a2.37,2.37,0,0,0-2,1.5c-1.59,3.79,5,11.64,12.28,28.21,4.11,9.37,4,11.44,7.25,16.36A35,35,0,0,0,141.57,100Z"/><path class="cls-2" d="M375.58,223.88l8.16-35.17c2.76-11.89,11.4-61.79,11.52-62.44a22.32,22.32,0,0,1-16.32-19.83C378,93,394.15,84.83,395.89,84a309.51,309.51,0,0,1,20.58,30.51s65.16,110.64-8.55,225c-1.48,2.31-5.51,8.56-11,8.59-4.7,0-8.47-4.46-11.42-8.59a82.66,82.66,0,0,1-15.33-42.27A131.42,131.42,0,0,1,371.23,270Z"/><path class="cls-7" d="M383.31,305A98.78,98.78,0,0,1,372,266.05c-.79-11.33.66-21,2.58-33.93,2-13.66,4.56-23.71,5.22-26.33,3.67-14.75,8.85-38.75,15.48-79.52"/><path class="cls-7" d="M291.83,207.79a115.5,115.5,0,0,0-14.16,17.69,116.79,116.79,0,0,0-15.22,34.86"/><path class="cls-8" d="M365.77,106.69a83.79,83.79,0,0,0-8.24,48.3c3.16,24.87,16.15,39,19.37,42.31"/><path class="cls-8" d="M424.06,312a58.26,58.26,0,0,0,28.77-5.33c13.62-6.27,19.55-15.19,20.92-17.36"/><line class="cls-7" x1="215.24" y1="355.21" x2="364.51" y2="540.15"/><line class="cls-7" x1="272.04" y1="346.32" x2="398.3" y2="502.74"/><line class="cls-7" x1="354.15" y1="358.6" x2="419.99" y2="440.18"/><line class="cls-7" x1="168.72" y1="380.13" x2="305.41" y2="553.08"/><line class="cls-7" x1="112.31" y1="411.56" x2="171.83" y2="486.87"/><line class="cls-7" x1="73.71" y1="454.07" x2="115.52" y2="506.97"/><line class="cls-7" x1="52.88" y1="497.62" x2="79.81" y2="541.4"/><line class="cls-7" x1="335.17" y1="355.76" x2="52.88" y2="497.62"/><line class="cls-7" x1="403.6" y1="378.29" x2="198.16" y2="488.2"/><line class="cls-7" x1="419.99" y1="440.18" x2="266.74" y2="518.69"/><path class="cls-9" d="M317.18,102.05a17,17,0,0,1,9.87-9.76c8.28-2.92,15.22,2.36,15.68,2.72a18.57,18.57,0,0,1-25.55,7Z"/><g class="cls-10"><circle class="cls-11" cx="329.58" cy="97.44" r="8.27"/></g><path class="cls-12" d="M310.74,103.6c.18,2.81.16,5.07.11,6.64-.08,2.42-.27,4,.67,4.64a2.84,2.84,0,0,0,2.54,0"/><path class="cls-12" d="M314.06,123.24a22.34,22.34,0,0,0,9-.58,18.2,18.2,0,0,0,4.31-1.84,17.11,17.11,0,0,0,3.24-2.56"/><path class="cls-13" d="M22.41,671.86c.15-5.44,1.91-60.05,15.93-62.38,10.51-1.74,26.05,26.22,39.15,67.69"/></svg>
